<?xml version="1.0" standalone="no"?>
<!DOCTYPE svg PUBLIC "-//W3C//DTD SVG 20010904//EN"
 "http://www.w3.org/TR/2001/REC-SVG-20010904/DTD/svg10.dtd">
<svg version="1.0" xmlns="http://www.w3.org/2000/svg"
 width="678.000000pt" height="678.000000pt" viewBox="0 0 678.000000 678.000000"
 preserveAspectRatio="xMidYMid meet">
<metadata>
Created by potrace 1.11, written by Peter Selinger 2001-2013
</metadata>
<g transform="translate(0.000000,678.000000) scale(0.100000,-0.100000)"
fill="#000000" stroke="none">
<path d="M6310 6116 c-5 -5 -10 -7 -10 -3 0 7 -73 -22 -127 -51 -18 -9 -33
-20 -33 -24 0 -5 -4 -8 -9 -8 -11 0 -310 -205 -396 -272 -5 -5 -37 -28 -70
-53 -33 -24 -64 -48 -70 -53 -5 -4 -55 -41 -110 -82 -55 -40 -102 -76 -105
-79 -3 -4 -31 -26 -62 -49 -67 -51 -278 -233 -404 -347 -18 -16 -48 -43 -66
-60 -19 -16 -72 -65 -119 -107 -46 -42 -95 -86 -109 -98 -24 -21 -165 -149
-220 -200 -15 -14 -62 -57 -105 -95 -43 -39 -96 -87 -119 -107 -22 -21 -46
-38 -51 -38 -6 0 -35 9 -65 20 -30 11 -64 22 -75 24 -11 2 -40 11 -65 19 -25
9 -83 24 -130 36 -47 11 -98 23 -115 27 -35 8 -40 9 -120 23 -33 6 -73 13 -90
16 -16 3 -52 8 -80 11 -27 3 -61 7 -74 9 -22 4 -114 12 -241 20 -176 12 -482
3 -672 -20 -26 -3 -64 -8 -85 -10 -21 -2 -39 -5 -40 -6 -5 -3 -15 -5 -73 -13
-30 -4 -64 -10 -75 -12 -11 -3 -31 -6 -45 -9 -14 -2 -25 -4 -25 -5 0 -1 -11
-4 -24 -6 -14 -2 -52 -12 -85 -20 -34 -9 -72 -18 -85 -20 -13 -3 -34 -10 -45
-16 -12 -6 -21 -10 -21 -9 0 4 -83 -17 -115 -29 -14 -5 -38 -15 -55 -21 -16
-7 -38 -14 -47 -15 -20 -4 -127 -49 -243 -102 -82 -38 -281 -146 -319 -175 -6
-4 -47 -33 -91 -64 -195 -137 -410 -359 -495 -511 -8 -15 -17 -29 -20 -32 -8
-8 -58 -104 -59 -113 0 -4 -7 -20 -15 -35 -16 -32 -63 -182 -71 -232 -19 -104
-21 -135 -19 -235 2 -61 5 -121 8 -135 2 -14 7 -45 10 -69 4 -24 9 -49 13 -54
3 -6 7 -87 9 -181 1 -94 4 -184 7 -201 3 -16 9 -50 12 -74 17 -117 147 -426
206 -490 11 -11 19 -23 19 -27 0 -30 244 -298 350 -384 23 -19 48 -40 54 -45
25 -23 142 -108 156 -113 8 -3 23 -13 32 -22 32 -29 255 -151 380 -206 151
-67 156 -70 193 -82 17 -6 39 -14 50 -18 11 -4 22 -8 25 -9 3 0 50 -15 105
-33 55 -17 111 -33 125 -36 14 -3 54 -12 90 -21 36 -9 74 -18 85 -20 11 -1 31
-5 45 -8 14 -4 41 -9 60 -12 19 -2 44 -6 55 -9 11 -2 49 -7 85 -11 36 -4 79
-9 95 -11 153 -21 556 -21 695 1 19 3 60 7 90 10 30 2 56 5 58 6 3 2 13 4 63
12 77 13 100 17 189 38 47 11 93 22 104 24 10 3 42 11 70 19 28 8 53 15 56 15
3 1 43 14 90 31 47 17 90 32 95 34 6 2 19 7 30 11 432 173 770 401 1008 680
81 96 88 104 122 155 16 25 32 47 35 50 3 3 11 16 18 30 7 14 25 48 40 76 65
119 123 284 137 389 2 22 7 51 10 65 3 14 6 97 6 185 0 104 6 184 16 230 18
84 25 309 12 385 -10 60 -28 136 -36 160 -4 8 -8 24 -10 35 -1 11 -7 29 -12
40 -123 268 -181 353 -363 539 -54 55 -98 100 -98 101 0 1 9 13 20 26 25 30
28 34 70 92 19 26 53 71 75 100 22 30 48 64 58 78 95 131 362 485 369 487 4 2
8 10 8 18 0 8 5 14 10 14 6 0 10 6 10 14 0 8 4 16 8 18 5 2 35 39 67 83 74
102 71 99 195 175 115 70 293 196 380 269 97 80 121 103 240 230 62 67 138
191 159 261 20 65 21 155 4 206 -18 53 -67 94 -133 111 -35 9 -161 8 -170 -1z"/>
</g>
</svg>
