<svg xmlns="http://www.w3.org/2000/svg" viewBox="0 0 78.15 74.75"><defs><style>.cls-1{fill:#f3efa1;}</style></defs><title>Asset 1</title><g id="Layer_2" data-name="Layer 2"><g id="Your_Design" data-name="Your Design"><path class="cls-1" d="M36,21.47a1.23,1.23,0,0,1-.08-.6.37.37,0,0,1,.37-.37.34.34,0,0,1,.28.14.41.41,0,0,1,.27-.11.4.4,0,0,1,.23.08.38.38,0,0,1,.46.05l0,0,.06.09h0a.56.56,0,0,1,.52-.42c.22,0,.35.18.52.29l.16.12a1.88,1.88,0,0,1,.45-.22.63.63,0,0,1,.5.05l.23.18a.93.93,0,0,1,.57-.32.71.71,0,0,1,.4.09.69.69,0,0,1,.19.1,1.19,1.19,0,0,1,.59-.32c.28,0,.4.23.56.42a.38.38,0,0,1-.07.58,1.27,1.27,0,0,1-.32.13c-.14,0-.13.07-.25.17a.76.76,0,0,1-.69.06l-.09,0-.06,0a1.09,1.09,0,0,1-.35.15.75.75,0,0,1-.42,0l-.15-.07a1.59,1.59,0,0,1-.81.24.7.7,0,0,1-.47-.12h-.16a.92.92,0,0,1-.81,0,.76.76,0,0,1-.2-.2.51.51,0,0,1-.33.13.62.62,0,0,1-.57-.29A.37.37,0,0,1,36,21.47ZM29.35,10.74l-.22.17C29.68,2.92,33.87,0,38.67,0s9.47,2.1,10.08,10.71a.06.06,0,0,0-.06,0,2.13,2.13,0,0,1-1,0c-.12-.1-.35-.35-.65-.67L47,9.9h0a3.6,3.6,0,0,0-2-1,2.78,2.78,0,0,0-3.65-.24,2.38,2.38,0,0,0-.44.84c0,.06,0,.14,0,.22a1.3,1.3,0,0,1-.6-.13,4.88,4.88,0,0,0-1.18-.22,4.83,4.83,0,0,0-1.17.22.94.94,0,0,1-.92,0l0-.12a2.44,2.44,0,0,0-.43-.84A2.8,2.8,0,0,0,32.78,9a3.38,3.38,0,0,0-1.6.88h0a.41.41,0,0,0-.09.1c-.14.15-.49.53-.65.67a2.15,2.15,0,0,1-1,0A.15.15,0,0,0,29.35,10.74Zm9.1-4.46a3,3,0,0,0,.06.51V6.67a.67.67,0,0,0,.18.42.6.6,0,0,0,.44.18.62.62,0,0,0,.44-.18.6.6,0,0,0,.18-.44c0-.09,0-.18,0-.27a.34.34,0,0,1,0-.1.63.63,0,0,0-1.25,0Zm8.62,5.81A3.05,3.05,0,0,1,44,15.27a3,3,0,0,1-3.22-3.18,2.46,2.46,0,0,1,.91-1.95,9.17,9.17,0,0,1,3.86-.48A2.48,2.48,0,0,1,47.07,12.09ZM46,11.61a2.3,2.3,0,0,0-.57-.33,6.19,6.19,0,0,0-.57-.3,4.46,4.46,0,0,0-1.34-.33,4.52,4.52,0,0,0-.82,0,2.39,2.39,0,0,0-.7.17c-.18.08-.3.23-.48.32a1.17,1.17,0,0,0-.52.41c-.26.4.38.77.64.37.08-.12.28-.15.4-.23a1.36,1.36,0,0,1,.33-.22l.13,0a.87.87,0,0,0,0,.32,1,1,0,0,0,1.06.64c.42,0,.91-.17.88-.67a.78.78,0,0,0,0-.16l.17.06c.15.07.29.17.44.25a2.35,2.35,0,0,1,.42.21C45.8,12.46,46.32,11.94,46,11.61Zm-2.28-.23a.12.12,0,0,0-.12.12.12.12,0,0,0,.24,0A.12.12,0,0,0,43.69,11.38Zm-6.62-.62a2.5,2.5,0,0,1,.37,1.33,3,3,0,0,1-3.22,3.18,3.05,3.05,0,0,1-3.12-3.18,2.49,2.49,0,0,1,1.61-2.45C33.76,9.61,36.18,9.65,37.07,10.76Zm0,.84a1.17,1.17,0,0,0-.52-.41c-.18-.09-.3-.24-.48-.32a2.47,2.47,0,0,0-.7-.17,4.52,4.52,0,0,0-.82,0,4.46,4.46,0,0,0-1.34.33,6.19,6.19,0,0,0-.57.3,2.66,2.66,0,0,0-.57.33c-.35.32.17.85.52.52a2.06,2.06,0,0,1,.42-.21c.13-.07.25-.16.38-.22l.24-.1,0,.12c-.06.53.44.72.88.72a1,1,0,0,0,1-.61.8.8,0,0,0,0-.34l.08,0c.17,0,.24.14.38.23s.32.12.4.23C36.73,12.37,37.37,12,37.11,11.6Zm-2.31-.22a.12.12,0,0,0-.12.12.12.12,0,0,0,.24,0A.12.12,0,0,0,34.8,11.38ZM78.1,61.17c-.59,7.2-8.58,13.67-29.54,13.58,15.32-6.63,13-13.83,12.38-12.29S55.41,72.64,39.59,73.53A24.7,24.7,0,0,1,17,62.46c-.79.2,0,1.48,0,1.48,3.32,6,8.71,9.13,13.82,10.8C8.92,75.08.65,68.5,0,61.17c-.69-8.4,7.17-10.48,7.17-10.48-2.42-4-.4-10.08,5.44-18.39S23.47,21.48,25.5,20.93s1.78-3,1.78-5.63a2.48,2.48,0,0,1,1.78-2.56c0-.09,0-.18,0-.28l.39-.37a5.34,5.34,0,0,1,.72.12c.07,0,.17.15.25.46,0,.08,0,.15,0,.22v0a3.72,3.72,0,0,0,3.73,2.89,3.44,3.44,0,0,0,3.52-2.25,2.34,2.34,0,0,0,.44-.79l.07-.25c.15-.47.26-.84.1-1.06a.76.76,0,0,0-.26-.2c-.11-.06-.19-.1-.23-.23h0c0-.12,0-.22.32-.38l.15-.09a.93.93,0,0,1,.76-.17h0a.94.94,0,0,1,.76.17l.14.09c.32.16.36.26.33.38v0a.4.4,0,0,1-.23.23.68.68,0,0,0-.26.2c-.16.22,0,.59.09,1.06,0,.08,0,.17.08.25a2,2,0,0,0,.44.79A3.43,3.43,0,0,0,44,15.81a3.74,3.74,0,0,0,3.74-2.89v0h0a2.09,2.09,0,0,0,.05-.21c.07-.32.18-.45.25-.47a5.1,5.1,0,0,1,.72-.12l.11.1v.48a2.5,2.5,0,0,1,2,2.63c0,2.67-.25,5.09,1.78,5.63S59.67,24,65.5,32.3s7.86,14.39,5.44,18.39C70.94,50.69,78.8,52.77,78.1,61.17ZM44,18.3c.14,0,.33.15.47.19l.57.18c.3.11.75.27.71.66a2.09,2.09,0,0,1-.47,1,3.42,3.42,0,0,0-.23.42.5.5,0,0,1,0,.13c0,.07-.1.1,0,.08-.47.1-.27.81.19.71s.5-.56.69-.87a2.81,2.81,0,0,0,.65-1.58,1.43,1.43,0,0,0-1-1.17c-.25-.09-.51-.19-.78-.26a3.44,3.44,0,0,0-.75-.24C43.48,17.54,43.48,18.28,44,18.3ZM36,17.19a1.46,1.46,0,0,0,.62.16c.24,0,.45-.05.67.07a4.55,4.55,0,0,0,1.11.48,1.85,1.85,0,0,0,1.19-.35A2.5,2.5,0,0,1,40,17.4a6.39,6.39,0,0,0,1.07,0,.37.37,0,0,0,.09-.68,1.87,1.87,0,0,0-.49-.15,1.53,1.53,0,0,0-.67.05c-.48.1-.87.39-1.33.52l-.06,0h0a1.46,1.46,0,0,0-.3-.07L38,17a.36.36,0,0,0-.12-.19,1.65,1.65,0,0,0-1-.48.93.93,0,0,0-.92.39A.39.39,0,0,0,36,17.19Zm-3.16,4.56c.31.37.83-.16.52-.52a3.66,3.66,0,0,1-.56-.88c.12.08.24.14.35.22s.38.32.59.45c.41.26.79.54,1.2.79s.93.46,1.39.71a5.36,5.36,0,0,0,1.42.6,5.89,5.89,0,0,0,2.86,0,7.51,7.51,0,0,0,2.44-1.32c.2-.16.38-.32.57-.49s.39-.27.57-.41L45.35,20c.26-.22,0-.62-.26-.63a2.44,2.44,0,0,0-.6.11,5.58,5.58,0,0,1-.59.09c-.22-.42-.83-1.48-1.13-1.18,0,0,.7.71.59,1.24h0a8,8,0,0,1-.84.05c-.52,0-1,.09-1.54.13s-1,0-1.56,0c-1.07,0-2.14,0-3.2,0-.48,0-1-.05-1.43-.1a2.55,2.55,0,0,1-1.29-.29.41.41,0,0,0-.64.21.39.39,0,0,0-.22.11c0-.07,0-.14,0-.21a1.31,1.31,0,0,1,.32-.82.9.9,0,0,1,.24-.27,1.39,1.39,0,0,1,.36-.12c.45-.15.26-.86-.2-.71a1.59,1.59,0,0,0-.89.54,2.21,2.21,0,0,0-.56,1.17A3.43,3.43,0,0,0,32.88,21.75ZM39,28a6.45,6.45,0,0,1-5.56-3.19,5.79,5.79,0,0,0,11.12,0A6.46,6.46,0,0,1,39,28Zm-3,9c-1.93-2.57-7.36,2-10.92.54s-.35-7.16-.35-7.16c.4-.81-.35-1.49-1.83.69a6.78,6.78,0,0,0-.77,6.39C20.72,39,17.42,42.93,17,46c-.59,3.9.29,5.43.49,3.85,0,0,.24-7,6.22-10.73,2.23,1.1,6.31.34,8.32-.88,2.27-1.39,3.36-.15,3.85-.34S36,37.05,36,37.05Zm4.67,27.64a1.43,1.43,0,1,0-1.43,1.43A1.43,1.43,0,0,0,40.65,64.69ZM61.3,46c-.46-3.07-3.77-7-5.16-8.49a6.78,6.78,0,0,0-.77-6.39c-1.48-2.18-2.23-1.5-1.83-.69,0,0,3.22,5.68-.34,7.16s-9-3.11-10.93-.54c0,0-.34.65.15.85s1.58-1,3.86.34c2,1.22,6.09,2,8.31.88,6,3.69,6.22,10.73,6.22,10.73C61,51.43,61.9,49.9,61.3,46Z"/></g></g></svg>