<?xml version="1.0" encoding="utf-8"?>
<!-- Generator: Adobe Illustrator 22.0.1, SVG Export Plug-In . SVG Version: 6.00 Build 0)  -->
<svg version="1.1" id="Layer_1" xmlns="http://www.w3.org/2000/svg" xmlns:xlink="http://www.w3.org/1999/xlink" x="0px" y="0px"
	 viewBox="0 0 338.5 292.6" style="enable-background:new 0 0 338.5 292.6;" xml:space="preserve">
<style type="text/css">
	.st0{fill:#3A3536;}
	.st1{fill:#514D4E;}
	.st2{fill:#C9C7C7;}
	.st3{fill:#ADACAC;}
	.st4{fill:#666465;}
	.st5{fill:#A0D1CA;}
	.st6{fill:#E2E0E0;}
</style>
<path class="st0" d="M244.7,121.8l40.5-54.3c0,0,54.3-30,44.6-53l-60.2,46.1L227.3,108L244.7,121.8z"/>
<path class="st1" d="M204.3,98.4c0,0,43.2-39.6,55.2-49.7s40.4-30.8,48.8-35.9c12.9-7.8,27.1,0.5,19.8,6.9
	c-7.4,6.4-32.2,21.6-46.5,36.3s-46,56.1-46,56.1L204.3,98.4z"/>
<path class="st2" d="M204.3,98.4c0,0,3-2.8,7.7-7l29.2,13.6c-3.4,4.4-5.6,7.2-5.6,7.2L204.3,98.4z"/>
<path class="st3" d="M247.5,121.4l-6.4-16.4c-3.4,4.4-5.6,7.2-5.6,7.2S242.8,125.6,247.5,121.4z"/>
<g>
	<path class="st0" d="M14.1,170.8c0-45.7,57.5-82.8,128.5-82.8s128.5,37.1,128.5,82.8s-57.5,82.8-128.5,82.8S14.1,216.5,14.1,170.8z
		"/>
	<path class="st0" d="M142.6,253.6c69.4,0,125.9-35.4,128.4-79.8c0-1.2,0-2,0-2.2c-3-44-59.3-41.3-128.3-41.3
		c-68.6,0-124.6-3.1-128.3,40.5c0,0.3,0,1.6-0.1,3.6C17.2,218.5,73.5,253.6,142.6,253.6z"/>
</g>
<ellipse class="st4" cx="142.6" cy="200.2" rx="118.4" ry="73.5"/>
<path class="st5" d="M142.6,253.6c-69.1,0-125.4-35.1-128.3-79.1c-0.1,10.1-0.1,20.9-0.1,22.1c0,45.7,57.5,89.2,128.5,89.2
	s128.5-43.5,128.5-89.2c0-1.1,0-14.3-0.1-22.7C268.5,218.1,212,253.6,142.6,253.6z"/>
<path class="st6" d="M142.6,255.6c-72,0-130.5-38.1-130.5-84.9s58.6-84.9,130.5-84.9c72,0,130.5,38.1,130.5,84.9
	C273.1,217.6,214.6,255.6,142.6,255.6z M142.6,90.1c-69.7,0-126.4,36.2-126.4,80.7s56.7,80.7,126.4,80.7S269,215.3,269,170.8
	S212.3,90.1,142.6,90.1z"/>
<ellipse transform="matrix(0.8778 -0.479 0.479 0.8778 29.5126 153.4202)" class="st0" cx="315.5" cy="18.9" rx="7.8" ry="4.9"/>
</svg>
